# xmcd CD database file
#
# Track frame offsets:
#	150
#	15038
#	27888
#	43011
#	57512
#	74546
#	87380
#	100974
#	116238
#	132109
#	145412
#	158440
#	170678
#	182734
#	197591
#	209439
#	223933
#	236136
#	250501
#	265097
#	277470
#	290758
#
# Disc length: 4325 seconds
#
# Revision: 1
# Processed by: cddbd v1.5.2PL0 Copyright (c) Steve Scherf et al.
# Submitted via: CDex 1.51
#
DISCID=5510e316
DTITLE=Hot Lips Page - On The Blues Side  {1940-1950}
DYEAR=2003
DGENRE=Jazz
TTITLE0=Thirsty Mama Blues   [1940]
TTITLE1=Rockin' At Ryan's   [1944]
TTITLE2=The Blues Jumped The Rabbit   [1944]
TTITLE3=Uncle Sam's Blues N°2   [1944]
TTITLE4=I Keep Rollin' On N°2   [1944]
TTITLE5=Six, Seven, Eight Or Nine   [1944]
TTITLE6=The Lady In Bed   [1944]
TTITLE7=Miss Martinghale   [1944]
TTITLE8=You Come In Here Woman   [1945]
TTITLE9=They Raided The Joint   [1945]
TTITLE10=Sunset Blues   [1945]
TTITLE11=Florida Blues   [1945]
TTITLE12=Race Horse Mama Blues   [1945]
TTITLE13=Buffalo Bill Blues   [1945 or 46]
TTITLE14=Gimme Gimme Gimme   [1946]
TTITLE15=St. James Infirmary   [1947]
TTITLE16=Walkin' In A Daze   [1947]
TTITLE17=Tht Lucky Old Sun   [1949]
TTITLE18=The Breaks N°2   [1944]
TTITLE19=Page Mr.Trumpet N°2   [1946]
TTITLE20=Crazy Love   [1947]
TTITLE21=The Blues In B Flat   [1950]
EXTD=YEAR: 2003
EXTT0=
EXTT1=
EXTT2=
EXTT3=
EXTT4=
EXTT5=
EXTT6=
EXTT7=
EXTT8=
EXTT9=
EXTT10=
EXTT11=
EXTT12=
EXTT13=
EXTT14=
EXTT15=
EXTT16=
EXTT17=
EXTT18=
EXTT19=
EXTT20=
EXTT21=
PLAYORDER=
